<svg data-v-0dd9719b="" version="1.0" xmlns="http://www.w3.org/2000/svg" xmlns:xlink="http://www.w3.org/1999/xlink" width="100%" height="100%" viewBox="0 0 340.000000 250.000000" preserveAspectRatio="xMidYMid meet" color-interpolation-filters="sRGB" style="margin: auto;"> <rect data-v-0dd9719b="" x="0" y="0" width="100%" height="100%" fill="#fff" fill-opacity="1" class="background"></rect> <rect data-v-0dd9719b="" x="0" y="0" width="100%" height="100%" fill="url(#watermark)" fill-opacity="1" class="watermarklayer"></rect> <g data-v-0dd9719b="" fill="#f42f67" class="icon-text-wrapper icon-svg-group iconsvg" transform="translate(80.31999969482422,84.1500015258789)"><g class="iconsvg-imagesvg" transform="translate(59.68000030517578,0)"><g><rect fill="#f42f67" fill-opacity="0" stroke-width="2" x="0" y="0" width="60" height="60" class="image-rect"></rect> <svg x="0" y="0" width="60" height="60" filtersec="colorsb7916606489" class="image-svg-svg primary" style="overflow: visible;"><svg xmlns="http://www.w3.org/2000/svg" viewBox="0.6100000143051147 0.690000057220459 77.14000701904297 77.13999938964844"><path fill="#F42F67" d="M39.18.69C17.88.69.61 17.96.61 39.26c0 21.31 17.27 38.57 38.57 38.57 21.31 0 38.57-17.27 38.57-38.57C77.76 17.96 60.49.69 39.18.69zM16.06 61.56c-1.5-1.55-2.83-3.26-4-5.09 5.59-4.72 12.8-7.57 20.68-7.57H45.6c9.89 0 18.88-3.76 25.7-9.89 0 .08.01.16.01.24 0 3.04-.45 5.98-1.24 8.77-7.05 4.6-15.44 7.3-24.47 7.3H32.75c-6.38.01-12.19 2.38-16.69 6.24zM9.13 50.6c-.81-2.13-1.39-4.38-1.72-6.7a44.682 44.682 0 0 1 25.34-7.86h12.86c9.19 0 17.27-4.86 21.81-12.14 1.21 2.21 2.12 4.59 2.78 7.08C64.32 38 55.49 42.47 45.61 42.47H32.75c-8.91 0-17.09 3.05-23.62 8.13zm54.13-32.59c-2.98 6.81-9.75 11.6-17.64 11.6H32.75c-9.3 0-18.03 2.5-25.57 6.84.25-2.83.88-5.55 1.81-8.13a57.43 57.43 0 0 1 23.77-5.14h12.86c6.06 0 11.12-4.23 12.47-9.88 1.89 1.38 3.62 2.96 5.17 4.71zM39.18 7.11c4.57 0 8.92.97 12.86 2.69v.51c0 3.55-2.88 6.44-6.43 6.44H32.75c-6.63 0-13.01 1.06-19.03 2.94C19.59 12.06 28.8 7.11 39.18 7.11zm0 64.29c-6.73 0-12.98-2.08-18.14-5.62 3.25-2.51 7.3-4.03 11.71-4.03h12.86c7.04 0 13.74-1.45 19.85-4.03-5.81 8.27-15.4 13.68-26.28 13.68z"></path></svg></svg> <!----></g></g> <g transform="translate(0,67)"><g data-gra="path-name" fill-rule="" class="tp-name iconsvg-namesvg"><g transform="scale(1)"><g><path d="M3.17 0L8.27 0 9.98-7.9 10.1-7.9 11.77 0 16.87 0 20.06-14.28 15.78-14.28 14.12-4.92 13.99-4.92 12.55-13.13 7.9-13.13 6.26-4.92 6.13-4.92 4.55-14.28 0.25-14.28ZM20.5 0L25.33 0 27.8-4.73 27.93-4.73 30.31 0 35.23 0 30.97-7.39 35.09-14.28 30.27-14.28 27.99-9.73 27.86-9.73 25.54-14.28 20.76-14.28 24.86-7.26ZM36.77 0L40.87 0 40.87-14.28 36.77-14.28ZM47.68-3.52L47.68-5.54 52.48-5.54 52.48-8.93 47.68-8.93 47.68-10.74 52.91-10.74 52.91-14.28 43.59-14.28 43.59 0 53.03 0 53.03-3.52ZM64.58-10.74L64.58-14.28 55.25-14.28 55.25 0 59.35 0 59.35-4.94 64.14-4.94 64.14-8.44 59.35-8.44 59.35-10.74ZM70.65-3.52L70.65-5.54 75.44-5.54 75.44-8.93 70.65-8.93 70.65-10.74 75.87-10.74 75.87-14.28 66.55-14.28 66.55 0 76 0 76-3.52ZM78.22 0L82.25 0 82.25-9.55 82.38-9.55 85.77 0 91.47 0 91.47-14.28 87.48-14.28 87.48-5.33 87.36-5.33 84.39-14.28 78.22-14.28ZM101.1 0.21C102.85 0.21 104.89-0.12 105.98-0.45L105.98-8.7 100.11-8.7 100.11-5.29 102.21-5.29 102.21-3.21C101.9-3.19 101.86-3.19 101.31-3.19 98.76-3.19 98.34-4.16 98.34-7.14 98.34-10 99.11-11.03 101.49-11.03 102.58-11.03 103.9-10.84 105.05-10.45L105.05-14.01C104.21-14.28 102.52-14.49 101.14-14.49 96.64-14.49 93.82-12.66 93.82-7.14 93.82-1.15 96.51 0.21 101.1 0.21ZM120.78 0.21C122.52 0.21 124.56-0.12 125.65-0.45L125.65-8.7 119.79-8.7 119.79-5.29 121.89-5.29 121.89-3.21C121.58-3.19 121.54-3.19 120.98-3.19 118.43-3.19 118.02-4.16 118.02-7.14 118.02-10 118.78-11.03 121.17-11.03 122.26-11.03 123.57-10.84 124.73-10.45L124.73-14.01C123.88-14.28 122.2-14.49 120.82-14.49 116.31-14.49 113.49-12.66 113.49-7.14 113.49-1.15 116.19 0.21 120.78 0.21ZM140.92 0L137.09-5.23C138.82-5.86 139.58-7.2 139.58-9.51 139.58-12.9 137.69-14.28 134.05-14.28L128.25-14.28 128.25 0 132.34 0 132.34-4.79 133.14-4.79 136.09 0ZM132.34-11.15L133.33-11.15C134.99-11.15 135.55-10.82 135.55-9.51 135.55-8.17 134.99-7.72 133.33-7.72L132.34-7.72ZM146.27-3.52L146.27-5.54 151.07-5.54 151.07-8.93 146.27-8.93 146.27-10.74 151.5-10.74 151.5-14.28 142.18-14.28 142.18 0 151.62 0 151.62-3.52ZM164.05 0L168.41 0 163.21-14.28 157.67-14.28 152.42 0 156.71 0 157.71-3 163.06-3ZM158.8-6.3L160.29-10.76 160.53-10.76 161.99-6.3ZM179.61-14.28L168.72-14.28 168.72-10.7 172.12-10.7 172.12 0 176.19 0 176.19-10.7 179.61-10.7Z" transform="translate(-0.25, 14.489999771118164)"></path></g> <!----> <!----> <!----> <!----> <!----> <!----> <!----></g></g> <!----></g></g><defs v-gra="od"></defs></svg>